<?xml version="1.0" encoding="UTF-8"?><svg id="Layer_1" xmlns="http://www.w3.org/2000/svg" viewBox="0 0 413.2729 378.04459"><defs><style>.cls-1{fill:none;stroke:#b71c4e;stroke-miterlimit:10;stroke-width:4px;}</style></defs><path class="cls-1" d="M290.11963,147.95352c15.98047,16.19336,23.97705,38.10156,23.97705,65.71875v123.15234h-83.17676v-113.36133c0-12.05078-3.54053-21.52539-10.60889-28.43359-7.0752-6.90234-16.55078-10.35742-28.43311-10.35742-12.45264,0-22.21289,3.45508-29.28125,10.35742-7.0752,6.9082-10.60938,16.38281-10.60938,28.43359v113.36133H68.81055V58.13125h83.17676v97.54297c7.35352-9.53906,17.32617-17.25977,29.91797-23.16211,12.58545-5.89648,27.08691-8.84961,43.49805-8.84961,27.15967,0,48.72949,8.0957,64.71631,24.29102Z"/><path class="cls-1" d="M366.50147,95.22695c-8.91162-7.1543-13.36768-16.12891-13.36768-26.92773,0-11.04492,4.45605-20.20703,13.36768-27.49219,8.91211-7.2793,20.72119-10.92188,35.43506-10.92188,14.42871,0,26.09863,3.64258,35.01074,10.92188,8.91162,7.28516,13.36768,16.44727,13.36768,27.49219,0,10.79883-4.45605,19.77344-13.36768,26.92773-8.91211,7.15625-20.58203,10.73438-35.01074,10.73438-14.71387,0-26.52295-3.57812-35.43506-10.73438Zm76.59912,30.31836v211.2793h-83.17676V125.54531h83.17676Z"/></svg>