<?xml version="1.0" encoding="UTF-8"?><svg id="Layer_1" xmlns="http://www.w3.org/2000/svg" viewBox="0 0 1070.01835 337.51618"><defs><style>.cls-1{fill:#fff;}.cls-2{fill:#b6174d;}</style></defs><rect class="cls-2" width="1070.01835" height="337.51618"/><g><path class="cls-1" d="M198.21918,113.63492c10.20898-14.46973,22.81445-25.79004,37.82129-33.95898,15.00293-8.16504,30.9375-12.25195,47.80957-12.25195,21.30762,0,38.35352,4.97363,51.1377,14.91504,12.78516,9.94727,21.04199,23.88379,24.77051,41.81641h-13.84961c-3.02148-14.02441-9.94629-25.16895-20.77539-33.42578-10.83301-8.25684-25.21582-12.38574-43.14844-12.38574-14.38184,0-28.01172,3.4209-40.88379,10.25488-12.87598,6.83789-23.83789,16.69238-32.89355,29.56445-9.05566,12.87598-15.09473,27.83301-18.11133,44.87891-1.06543,6.57129-1.59863,12.78516-1.59863,18.64453,0,13.49609,2.66309,25.16992,7.99023,35.02441,5.32715,9.85547,12.78516,17.4043,22.37305,22.63965,9.58887,5.23926,20.68359,7.85742,33.29395,7.85742,17.93262,0,33.78027-4.12891,47.54297-12.38477,13.75781-8.25684,24.63672-19.39844,32.62695-33.42676h13.58398c-9.76758,17.93652-22.81836,31.87402-39.15332,41.81641-16.33887,9.94629-35.15723,14.91504-56.46484,14.91504-14.74121,0-27.74609-3.15039-39.02051-9.45508-11.27832-6.30078-19.97559-15.13574-26.10156-26.50195-6.12598-11.36133-9.18945-24.41211-9.18945-39.15234,0-6.9248,.62012-13.58398,1.86523-19.97656,3.37012-18.46484,10.16211-34.93262,20.375-49.40723Z"/><path class="cls-1" d="M580.82367,73.28336l-32.49512,182.98047h-11.98535l28.23242-158.20996-98.54785,158.20996h-9.58887l-42.61523-157.14453-27.96582,157.14453h-11.98633l32.49512-182.98047h12.51758l45.2793,167,104.1416-167h12.51855Z"/><path class="cls-1" d="M644.47797,216.57828h58.33008l-7.19141,39.68555h-110.7998l33.29297-187.77441h52.2041l-25.83594,148.08887Z"/><path class="cls-1" d="M867.94184,77.67886c12.60645,6.12598,22.19434,14.78223,28.76562,25.96875,6.56738,11.18652,9.85547,24.2373,9.85547,39.15234,0,6.75-.625,13.23047-1.86523,19.44336-3.19629,18.11133-10.0791,34.27148-20.6416,48.47559-10.56641,14.20801-23.9707,25.34863-40.21777,33.42578-16.24805,8.08203-34.22559,12.11914-53.93555,12.11914h-74.31055l33.29297-187.77441h74.31055c17.22168,0,32.13672,3.06348,44.74609,9.18945Zm-35.69043,120.12207c10.12109-8.43164,16.60156-20.28418,19.44336-35.55762,.70801-3.5498,1.06543-7.36621,1.06543-11.45312,0-11.89355-3.6416-21.04102-10.91992-27.43359-7.2832-6.3916-17.49121-9.58789-30.62988-9.58789h-17.8457l-17.3125,96.68359h18.1123c15.26855,0,27.96582-4.21582,38.08691-12.65137Z"/></g></svg>